<?xml version="1.0" encoding="UTF-8" standalone="no" ?>
<COLLADA version="1.4.1" xmlns="http://www.collada.org/2005/11/COLLADASchema">

  <asset>
    <contributor>
      <authoring_tool>ONSHAPE BY PTC INC, 1.212</authoring_tool>
    </contributor>
    <created>2026-03-28T21:00:54</created>
    <modified>2026-03-28T21:00:54</modified>
    <unit meter="1" name="meters"/>
    <up_axis>Z_UP</up_axis>
  </asset>

  <library_materials>
    <material id="ID9" name="ID9">
      <instance_effect url="#ID9-fx"/>
    </material>
  </library_materials>

  <library_effects>
    <effect id="ID9-fx" name="ID9">
      <profile_COMMON>
        <technique sid="COMMON">
          <lambert>
            <diffuse>
              <color sid="diffuse">0.615686 0.811765 0.92549 1</color>
            </diffuse>
            <transparent opaque="A_ONE">
              <color sid="transparent">1 1 1 1</color>
            </transparent>
            <transparency>
              <float sid="transparency">1</float>
            </transparency>
          </lambert>
        </technique>
        <extra>
          <technique profile="OTHER">
            <double_sided>1</double_sided>
          </technique>
        </extra>
      </profile_COMMON>
    </effect>
  </library_effects>

  <library_geometries>
    <geometry id="ID3">
      <mesh>
        <source id="ID4">
          <float_array count="936" id="ID5">-1.4 0.3 1.5 -1.4 -2.3 0 -1.4 -2.3 1.5 -1.4 0.3 0 1.4 -2.3 0 1.4 -2.3 1.5 -1.4 -2.3 1.5 -1.4 -2.3 0 1.4 -2.3 0 1.4 0 0 1.4 0 1.5 1.4 -2.3 1.5 6.4 0 0 6.4 0 1.5 1.4 0 1.5 1.4 0 0 6.4 5.3 0 6.4 5.3 1.5 6.4 0 1.5 6.4 0 0 6.4 5.3 1.5 4.4 5.3 0 4.4 5.3 1.5 6.4 5.3 0 4.4 8.7 0 4.4 8.7 1.5 4.4 5.3 1.5 4.4 5.3 0 4.4 8.7 0 1.2 8.7 1.5 4.4 8.7 1.5 1.2 8.7 0 1.2 11 0 1.2 11 1.5 1.2 8.7 1.5 1.2 8.7 0 1.2 11 1.5 -1.4 11 0 -1.4 11 1.5 1.2 11 0 -1.4 11 1.5 -1.4 6.8 0 -1.4 6.8 1.5 -1.4 11 0 -1.4 6.8 1.5 -6.7 6.8 0 -6.7 6.8 1.5 -1.4 6.8 0 -6.7 6.8 1.5 -6.7 0.3 0 -6.7 0.3 1.5 -6.7 6.8 0 1.2 2.3 1.5 1.2 -2.1 0 1.2 -2.1 1.5 1.2 2.3 0 1.2 -2.1 0 -1.2 -2.1 1.5 1.2 -2.1 1.5 -1.2 -2.1 0 -1.2 -2.1 0 -1.2 0.5 1.5 -1.2 -2.1 1.5 -1.2 0.5 0 -1.2 0.5 0 -3.8 0.5 1.5 -1.2 0.5 1.5 -3.8 0.5 0 -3.8 0.5 0 -3.8 2.9 1.5 -3.8 0.5 1.5 -3.8 2.9 0 -3.8 2.9 1.5 -4 2.9 0 -4 2.9 1.5 -3.8 2.9 0 -4 2.9 1.5 -4 0.5 0 -4 0.5 1.5 -4 2.9 0 -4 0.5 0 -6.5 0.5 1.5 -4 0.5 1.5 -6.5 0.5 0 -6.5 0.5 0 -6.5 6.6 0 -6.5 6.6 1.5 -6.5 0.5 1.5 -6.5 6.6 0 -1.4 6.6 0 -1.4 6.6 1.5 -6.5 6.6 1.5 -1.4 6.6 0 -1.4 4.6 1.5 -1.4 6.6 1.5 -1.4 4.6 0 -1.4 4.6 1.5 -3.9 4.6 0 -3.9 4.6 1.5 -1.4 4.6 0 -3.9 4.6 1.5 -3.9 4.4 0 -3.9 4.4 1.5 -3.9 4.6 0 -3.9 4.4 0 -1.4 4.4 0 -1.4 4.4 1.5 -3.9 4.4 1.5 -1.4 4.4 1.5 -1.4 2.6 0 -1.4 2.6 1.5 -1.4 4.4 0 -1.2 2.6 0 -1.2 2.6 1.5 -1.4 2.6 1.5 -1.4 2.6 0 -1.2 2.6 0 -1.2 4.4 0 -1.2 4.4 1.5 -1.2 2.6 1.5 -1.2 4.4 0 3 4.4 0 3 4.4 1.5 -1.2 4.4 1.5 3 4.4 1.5 3 2.3 0 3 2.3 1.5 3 4.4 0 3.2 2.3 0 3.2 2.3 1.5 3 2.3 1.5 3 2.3 0 3.2 4.6 0 3.2 4.6 1.5 3.2 2.3 1.5 3.2 2.3 0 3.2 4.6 1.5 1.4 4.6 0 1.4 4.6 1.5 3.2 4.6 0 1.4 4.6 0 1.4 6.2 0 1.4 6.2 1.5 1.4 4.6 1.5 1.4 6.2 0 1.2 6.2 1.5 1.4 6.2 1.5 1.2 6.2 0 1.2 6.2 1.5 1.2 4.6 0 1.2 4.6 1.5 1.2 6.2 0 1.2 4.6 1.5 -1.2 4.6 0 -1.2 4.6 1.5 1.2 4.6 0 -1.2 4.6 1.5 -1.2 10.8 0 -1.2 10.8 1.5 -1.2 4.6 0 -1.2 10.8 0 1 10.8 0 1 10.8 1.5 -1.2 10.8 1.5 1 10.8 1.5 1 7.7 0 1 7.7 1.5 1 10.8 0 1 7.7 0 1.2 7.7 0 1.2 7.7 1.5 1 7.7 1.5 1.2 8.5 0 1.2 8.5 1.5 1.2 7.7 1.5 1.2 7.7 0 1.2 8.5 0 4.2 8.5 0 4.2 8.5 1.5 1.2 8.5 1.5 4.2 8.5 1.5 4.2 5.1 0 4.2 5.1 1.5 4.2 8.5 0 4.2 5.1 0 6.2 5.1 0 6.2 5.1 1.5 4.2 5.1 1.5 6.2 5.1 1.5 6.2 0.2 0 6.2 0.2 1.5 6.2 5.1 0 6.2 0.2 0 1.4 0.2 1.5 6.2 0.2 1.5 1.4 0.2 0 1.4 0.2 0 1.4 2.3 1.5 1.4 0.2 1.5 1.4 2.3 0 1.4 2.3 1.5 1.2 2.3 0 1.2 2.3 1.5 1.4 2.3 0 -1.4 0.3 0 -1.4 0.3 1.5 -6.7 0.3 1.5 -6.7 0.3 0 -3.8 2.9 1.5 -4 2.9 1.5 -3.8 0.5 1.5 -1.2 -2.1 1.5 -1.4 0.3 1.5 -1.4 -2.3 1.5 -1.2 0.5 1.5 1.2 -2.1 1.5 1.4 0 1.5 1.2 2.3 1.5 4.2 5.1 1.5 4.4 5.3 1.5 4.2 8.5 1.5 3 2.3 1.5 3.2 2.3 1.5 3 4.4 1.5 1 7.7 1.5 1.2 8.5 1.5 1.2 8.7 1.5 -6.5 0.5 1.5 -6.7 6.8 1.5 -6.7 0.3 1.5 -1.4 11 1.5 -1.2 10.8 1.5 1 10.8 1.5 -1.4 6.8 1.5 -1.4 6.6 1.5 -1.2 4.6 1.5 6.4 0 1.5 6.2 0.2 1.5 1.2 6.2 1.5 1.4 4.6 1.5 1.4 6.2 1.5 1.4 -2.3 1.5 -6.5 6.6 1.5 -4 0.5 1.5 -1.4 4.6 1.5 -1.4 4.4 1.5 -1.2 4.4 1.5 -3.9 4.6 1.5 -3.9 4.4 1.5 -1.4 2.6 1.5 -1.2 2.6 1.5 1.4 0.2 1.5 6.2 5.1 1.5 6.4 5.3 1.5 3.2 4.6 1.5 4.4 8.7 1.5 1.2 4.6 1.5 1.2 11 1.5 1.2 7.7 1.5 1.4 2.3 1.5 3 2.3 0 3 4.4 0 3.2 2.3 0 4.4 5.3 0 4.2 5.1 0 4.2 8.5 0 1.2 8.5 0 1 7.7 0 1.2 8.7 0 1.4 4.6 0 1.2 6.2 0 1.4 6.2 0 -1.2 4.6 0 -1.4 6.6 0 -1.4 6.8 0 -1.4 11 0 -1.2 10.8 0 1 10.8 0 -1.4 0.3 0 -3.8 0.5 0 -1.2 0.5 0 -4 2.9 0 -3.8 2.9 0 -1.2 -2.1 0 -1.4 -2.3 0 -6.7 0.3 0 -6.7 6.8 0 -6.5 0.5 0 1.4 -2.3 0 1.2 -2.1 0 1.4 0 0 1.2 2.3 0 1.4 0.2 0 -1.2 4.4 0 -1.4 4.6 0 -4 0.5 0 -6.5 6.6 0 -3.9 4.6 0 -1.4 4.4 0 -3.9 4.4 0 -1.2 2.6 0 -1.4 2.6 0 1.4 2.3 0 6.2 0.2 0 6.4 0 0 6.2 5.1 0 6.4 5.3 0 3.2 4.6 0 4.4 8.7 0 1.2 4.6 0 1.2 11 0 1.2 7.7 0</float_array>
          <technique_common>
            <accessor count="312" source="#ID5" stride="3">
              <param name="X" type="float"/>
              <param name="Y" type="float"/>
              <param name="Z" type="float"/>
            </accessor>
          </technique_common>
        </source>
        <source id="ID6">
          <float_array count="936" id="ID7">-1 -1.70804e-16 0 -1 -1.70804e-16 0 -1 -1.70804e-16 0 -1 -1.70804e-16 0 -0 -1 -0 -0 -1 -0 -0 -1 -0 -0 -1 -0 1 0 0 1 0 0 1 0 0 1 0 0 -0 -1 -0 -0 -1 -0 -0 -1 -0 -0 -1 -0 1 0 0 1 0 0 1 0 0 1 0 0 0 1 0 0 1 0 0 1 0 0 1 0 1 0 0 1 0 0 1 0 0 1 0 0 0 1 0 0 1 0 0 1 0 0 1 0 1 0 0 1 0 0 1 0 0 1 0 0 0 1 0 0 1 0 0 1 0 0 1 0 -1 -0 -0 -1 -0 -0 -1 -0 -0 -1 -0 -0 0 1 0 0 1 0 0 1 0 0 1 0 -1 -0 -0 -1 -0 -0 -1 -0 -0 -1 -0 -0 -1 -1.05736e-16 0 -1 -1.05736e-16 0 -1 -1.05736e-16 0 -1 -1.05736e-16 0 0 1 0 0 1 0 0 1 0 0 1 0 1 1.85037e-16 0 1 1.85037e-16 0 1 1.85037e-16 0 1 1.85037e-16 0 0 1 0 0 1 0 0 1 0 0 1 0 1 1.85037e-16 0 1 1.85037e-16 0 1 1.85037e-16 0 1 1.85037e-16 0 0 1 0 0 1 0 0 1 0 0 1 0 -1 -1.85037e-16 0 -1 -1.85037e-16 0 -1 -1.85037e-16 0 -1 -1.85037e-16 0 0 1 0 0 1 0 0 1 0 0 1 0 1 0 0 1 0 0 1 0 0 1 0 0 0 -1 0 0 -1 0 0 -1 0 0 -1 0 -1 -1.11022e-16 -0 -1 -1.11022e-16 -0 -1 -1.11022e-16 -0 -1 -1.11022e-16 -0 0 1 0 0 1 0 0 1 0 0 1 0 -1 -0 -0 -1 -0 -0 -1 -0 -0 -1 -0 -0 0 -1 0 0 -1 0 0 -1 0 0 -1 0 -1 -0 -0 -1 -0 -0 -1 -0 -0 -1 -0 -0 -0 -1 -0 -0 -1 -0 -0 -1 -0 -0 -1 -0 1 0 0 1 0 0 1 0 0 1 0 0 0 -1 0 0 -1 0 0 -1 0 0 -1 0 -1 -2.11471e-16 0 -1 -2.11471e-16 0 -1 -2.11471e-16 0 -1 -2.11471e-16 0 -0 -1 -0 -0 -1 -0 -0 -1 -0 -0 -1 -0 1 0 0 1 0 0 1 0 0 1 0 0 0 1 0 0 1 0 0 1 0 0 1 0 1 0 0 1 0 0 1 0 0 1 0 0 0 1 0 0 1 0 0 1 0 0 1 0 -1 -0 -0 -1 -0 -0 -1 -0 -0 -1 -0 -0 0 1 0 0 1 0 0 1 0 0 1 0 1 5.55112e-17 0 1 5.55112e-17 0 1 5.55112e-17 0 1 5.55112e-17 0 0 -1 0 0 -1 0 0 -1 0 0 -1 0 -1 -1.79068e-16 0 -1 -1.79068e-16 0 -1 -1.79068e-16 0 -1 -1.79068e-16 0 0 -1 0 0 -1 0 0 -1 0 0 -1 0 1 0 0 1 0 0 1 0 0 1 0 0 0 -1 0 0 -1 0 0 -1 0 0 -1 0 -1 -0 -0 -1 -0 -0 -1 -0 -0 -1 -0 -0 0 -1 0 0 -1 0 0 -1 0 0 -1 0 -1 -1.81261e-16 0 -1 -1.81261e-16 0 -1 -1.81261e-16 0 -1 -1.81261e-16 0 0 1 0 0 1 0 0 1 0 0 1 0 1 2.11471e-16 0 1 2.11471e-16 0 1 2.11471e-16 0 1 2.11471e-16 0 0 1 0 0 1 0 0 1 0 0 1 0 -0 -1 -0 -0 -1 -0 -0 -1 -0 -0 -1 -0 0 0 1 0 0 1 0 0 1 0 0 1 0 0 1 0 0 1 0 0 1 0 0 1 0 0 1 0 0 1 0 0 1 0 0 1 0 0 1 0 0 1 0 0 1 0 0 1 0 0 1 0 0 1 0 0 1 0 0 1 0 0 1 0 0 1 0 0 1 0 0 1 0 0 1 0 0 1 0 0 1 0 0 1 0 0 1 0 0 1 0 0 1 0 0 1 0 0 1 0 0 1 0 0 1 0 0 1 0 0 1 0 0 1 0 0 1 0 0 1 0 0 1 0 0 1 0 0 1 0 0 1 0 0 1 0 0 1 0 0 1 0 0 1 0 0 1 0 0 1 0 0 1 0 0 1 -0 -0 -1 -0 -0 -1 -0 -0 -1 -0 -0 -1 -0 -0 -1 -0 -0 -1 -0 -0 -1 -0 -0 -1 -0 -0 -1 -0 -0 -1 -0 -0 -1 -0 -0 -1 -0 -0 -1 -0 -0 -1 -0 -0 -1 -0 -0 -1 -0 -0 -1 -0 -0 -1 -0 -0 -1 -0 -0 -1 -0 -0 -1 -0 -0 -1 -0 -0 -1 -0 -0 -1 -0 -0 -1 -0 -0 -1 -0 -0 -1 -0 -0 -1 -0 -0 -1 -0 -0 -1 -0 -0 -1 -0 -0 -1 -0 -0 -1 -0 -0 -1 -0 -0 -1 -0 -0 -1 -0 -0 -1 -0 -0 -1 -0 -0 -1 -0 -0 -1 -0 -0 -1 -0 -0 -1 -0 -0 -1 -0 -0 -1 -0 -0 -1 -0 -0 -1 -0 -0 -1 -0 -0 -1 -0 -0 -1 -0 -0 -1 -0 -0 -1 -0 -0 -1</float_array>
          <technique_common>
            <accessor count="312" source="#ID7" stride="3">
              <param name="X" type="float"/>
              <param name="Y" type="float"/>
              <param name="Z" type="float"/>
            </accessor>
          </technique_common>
        </source>
        <vertices id="ID8">
          <input semantic="POSITION" source="#ID4"/>
          <input semantic="NORMAL" source="#ID6"/>
        </vertices>
        <triangles count="208" material="ID9">
          <input offset="0" semantic="VERTEX" source="#ID8"/>
          <p>0 1 2 1 0 3 4 5 6 6 7 4 8 9 10 8 10 11 12 13 14 14 15 12 16 17 18 18 19 16 20 21 22 20 23 21 24 25 26 26 27 24 28 29 30 29 28 31 32 33 34 34 35 32 36 37 38 36 39 37 40 41 42 40 43 41 44 45 46 44 47 45 48 49 50 48 51 49 52 53 54 53 52 55 56 57 58 57 56 59 60 61 62 60 63 61 64 65 66 65 64 67 68 69 70 68 71 69 72 73 74 72 75 73 76 77 78 77 76 79 80 81 82 81 80 83 84 85 86 84 86 87 88 89 90 88 90 91 92 93 94 92 95 93 96 97 98 96 99 97 100 101 102 100 103 101 104 105 106 104 106 107 108 109 110 108 111 109 112 113 114 114 115 112 116 117 118 116 118 119 120 121 122 120 122 123 124 125 126 125 124 127 128 129 130 130 131 128 132 133 134 134 135 132 136 137 138 136 139 137 140 141 142 140 142 143 144 145 146 145 144 147 148 149 150 148 151 149 152 153 154 152 155 153 156 157 158 157 156 159 160 161 162 160 162 163 164 165 166 165 164 167 168 169 170 168 170 171 172 173 174 174 175 172 176 177 178 176 178 179 180 181 182 180 183 181 184 185 186 184 186 187 188 189 190 189 188 191 192 193 194 193 192 195 196 197 198 196 199 197 200 201 202 200 203 201 204 205 206 206 207 204 208 209 210 211 212 213 210 212 214 215 216 217 218 219 220 221 222 223 224 225 226 227 228 229 230 231 232 233 234 235 230 233 231 236 237 216 238 239 240 241 215 211 241 216 215 241 211 213 214 212 211 242 234 233 210 243 212 244 245 246 227 242 228 212 243 229 210 209 243 243 227 229 247 248 245 233 228 242 246 235 244 247 245 244 226 225 220 245 249 250 250 246 245 216 251 217 219 218 252 219 252 253 222 254 223 226 220 255 223 239 256 239 223 254 244 235 234 223 256 246 239 238 256 256 235 246 226 232 224 235 231 233 230 232 257 226 257 232 224 258 225 219 255 220 236 253 252 236 252 237 251 216 237 217 251 259 260 261 262 263 264 265 266 267 268 269 270 271 272 273 274 274 275 276 276 275 277 278 279 280 279 281 282 283 284 278 285 286 287 288 283 289 288 289 290 288 284 283 290 291 292 283 278 280 272 293 294 279 278 295 273 296 274 287 286 296 278 285 295 279 295 281 295 285 287 297 298 299 274 296 286 293 298 294 294 298 297 300 301 298 265 266 268 291 290 289 298 293 300 291 302 292 303 304 290 263 305 264 263 306 305 262 261 307 268 308 265 261 309 269 269 307 261 294 273 272 261 293 309 269 309 270 309 293 272 268 267 277 272 274 276 275 310 277 268 277 310 267 266 311 263 265 308 304 305 306 304 303 305 292 303 290</p>
        </triangles>
      </mesh>
    </geometry>
  </library_geometries>

  <library_visual_scenes>
    <visual_scene id="ID1">
      <node id="ID2">
        <instance_geometry url="#ID3">
          <bind_material>
            <technique_common>
              <instance_material symbol="ID9" target="#ID9"/>
            </technique_common>
          </bind_material>
        </instance_geometry>
      </node>
    </visual_scene>
  </library_visual_scenes>

  <scene>
    <instance_visual_scene url="#ID1"/>
  </scene>

  <library_nodes/>

</COLLADA>
